<mxfile host="65bd71144e">
    <diagram id="4yJ3dduFxznnWlOv4bH9" name="Page-1">
        <mxGraphModel dx="1486" dy="1231" grid="1" gridSize="10" guides="1" tooltips="1" connect="1" arrows="1" fold="1" page="1" pageScale="1" pageWidth="850" pageHeight="1100" math="0" shadow="0">
            <root>
                <mxCell id="0"/>
                <mxCell id="1" parent="0"/>
                <mxCell id="2" value="" style="rounded=0;whiteSpace=wrap;html=1;fillColor=none;" vertex="1" parent="1">
                    <mxGeometry x="90" y="100" width="490" height="340" as="geometry"/>
                </mxCell>
                <mxCell id="3" value="リバーシで学ぶアプリケーション設計入門" style="rounded=0;whiteSpace=wrap;html=1;fillColor=none;" vertex="1" parent="1">
                    <mxGeometry x="90" y="100" width="490" height="50" as="geometry"/>
                </mxCell>
                <mxCell id="5" value="過去の対戦結果" style="rounded=0;whiteSpace=wrap;html=1;fillColor=none;" vertex="1" parent="1">
                    <mxGeometry x="200" y="260" width="270" height="100" as="geometry"/>
                </mxCell>
                <mxCell id="6" value="対戦する" style="rounded=1;whiteSpace=wrap;html=1;fillColor=none;" vertex="1" parent="1">
                    <mxGeometry x="280" y="180" width="110" height="40" as="geometry"/>
                </mxCell>
                <mxCell id="7" value="" style="rounded=0;whiteSpace=wrap;html=1;fillColor=none;" vertex="1" parent="1">
                    <mxGeometry x="630" y="100" width="490" height="480" as="geometry"/>
                </mxCell>
                <mxCell id="8" value="リバーシで学ぶアプリケーション設計入門" style="rounded=0;whiteSpace=wrap;html=1;fillColor=none;" vertex="1" parent="1">
                    <mxGeometry x="630" y="100" width="490" height="50" as="geometry"/>
                </mxCell>
                <mxCell id="9" value="盤面" style="rounded=0;whiteSpace=wrap;html=1;fillColor=none;" vertex="1" parent="1">
                    <mxGeometry x="740" y="260" width="250" height="210" as="geometry"/>
                </mxCell>
                <mxCell id="10" value="白の晩はスキップです" style="rounded=1;whiteSpace=wrap;html=1;fillColor=none;" vertex="1" parent="1">
                    <mxGeometry x="780" y="180" width="190" height="40" as="geometry"/>
                </mxCell>
                <mxCell id="11" value="次は黒の晩です" style="text;html=1;strokeColor=none;fillColor=none;align=center;verticalAlign=middle;whiteSpace=wrap;rounded=0;" vertex="1" parent="1">
                    <mxGeometry x="760" y="500" width="210" height="30" as="geometry"/>
                </mxCell>
            </root>
        </mxGraphModel>
    </diagram>
</mxfile>